 <svg width="0" height="0">
 <path id="Selection"
        d="M 139.00,11.35
           C 141.34,11.15 142.59,10.95 145.00,11.35
             145.00,11.35 158.00,13.80 158.00,13.80
             158.00,13.80 177.00,16.72 177.00,16.72
             196.28,19.03 210.88,18.16 230.00,15.85
             241.91,14.40 257.33,7.75 267.99,14.08
             271.84,16.38 274.47,20.52 277.21,24.00
             277.21,24.00 291.08,41.00 291.08,41.00
             304.10,56.60 318.61,70.68 333.00,85.00
             333.00,85.00 366.00,113.58 366.00,113.58
             369.23,116.10 380.46,123.93 381.68,127.09
             382.56,129.37 381.29,133.57 380.80,136.00
             380.80,136.00 377.43,155.00 377.43,155.00
             374.57,174.26 373.78,193.55 374.00,213.00
             374.00,213.00 374.91,223.00 374.91,223.00
             374.91,223.00 379.25,260.00 379.25,260.00
             379.96,264.07 383.42,277.88 382.69,280.83
             381.91,284.00 377.49,286.81 375.00,288.80
             375.00,288.80 354.00,306.28 354.00,306.28
             337.84,320.43 316.53,341.71 302.58,358.00
             302.58,358.00 287.60,376.00 287.60,376.00
             284.54,379.83 281.53,384.58 276.96,386.64
             270.49,389.55 257.28,385.01 250.00,384.00
             226.64,380.77 212.63,379.73 189.00,380.00
             189.00,380.00 147.00,384.43 147.00,384.43
             143.17,385.08 130.98,388.23 128.04,387.31
             124.24,386.13 117.10,375.51 114.34,372.00
             104.90,360.00 94.64,347.92 83.99,337.00
             67.22,319.82 49.76,303.46 31.00,288.45
             27.26,285.46 15.86,277.49 14.02,273.96
             13.04,272.07 13.00,270.07 13.17,268.00
             13.17,268.00 17.72,240.00 17.72,240.00
             19.67,224.31 20.02,208.80 20.00,193.00
             19.98,181.83 17.77,163.22 15.92,152.00
             15.29,148.17 12.51,136.05 13.61,133.09
             14.69,130.18 18.57,127.72 21.00,125.87
             21.00,125.87 35.00,114.80 35.00,114.80
             51.19,101.83 66.37,87.69 81.00,73.00
             93.74,60.19 105.52,46.10 116.80,32.00
             124.09,22.89 127.37,14.65 139.00,11.35 Z" />
</svg>